<?xml version="1.0" encoding="utf-8"?>
<!-- Generator: Adobe Illustrator 28.1.0, SVG Export Plug-In . SVG Version: 6.00 Build 0)  -->
<svg version="1.1" id="Layer_1" xmlns="http://www.w3.org/2000/svg" xmlns:xlink="http://www.w3.org/1999/xlink" x="0px" y="0px"
	 viewBox="0 0 32 32" style="enable-background:new 0 0 32 32;" xml:space="preserve">
<style type="text/css">
	.st0{fill:#1C75BC;}
	.st1{fill:#14499E;}
	.st2{fill:#42A047;}
	.st3{fill:#41B655;}
	.st4{fill:#3D82C4;}
	.st5{fill:#FBAA19;}
	.st6{fill:#FFFFFF;}
	.st7{fill:#37474F;}
</style>
<g>
	<path class="st0" d="M13.8,12.9c0-0.3,0-0.5,0-0.8c0-0.2,0-0.4-0.1-0.5c0-0.2-0.1-0.2-0.2-0.2c-0.1,0-0.3,0.2-0.4,0.5
		c-0.1,0.3-0.3,0.9-0.6,1.6l-3.8,9.6H5.9l3.8-9.6c0.3-0.8,0.6-1.4,0.8-2c0.3-0.6,0.6-1.1,0.9-1.5c0.3-0.4,0.7-0.7,1.1-0.9
		c0.4-0.2,0.8-0.3,1.3-0.3c0.7,0,1.3,0.3,1.7,1c0.4,0.7,0.7,1.7,0.7,3v6.2c0,0.3,0,0.5,0,0.8c0,0.2,0,0.4,0.1,0.5
		c0,0.2,0.1,0.2,0.2,0.2c0.1,0,0.2-0.1,0.4-0.4c0.1-0.3,0.3-0.6,0.5-1.2h0l2.2-5.5c0.3-0.8,0.6-1.4,0.8-2c0.3-0.6,0.6-1.1,0.9-1.5
		c0.3-0.4,0.7-0.7,1.1-0.9c0.4-0.2,0.8-0.3,1.3-0.3c0.7,0,1.3,0.3,1.7,1c0.4,0.7,0.7,1.7,0.7,3v10.2h-2.5V12.9c0-0.3,0-0.5,0-0.8
		c0-0.2,0-0.4-0.1-0.5c0-0.2-0.1-0.2-0.2-0.2c-0.1,0-0.3,0.2-0.4,0.5s-0.3,0.9-0.6,1.6l-2,5c-0.3,0.8-0.6,1.4-0.8,2
		c-0.3,0.6-0.6,1.1-0.9,1.4c-0.3,0.4-0.7,0.7-1.1,0.9c-0.4,0.2-0.8,0.3-1.3,0.3c-0.7,0-1.3-0.3-1.7-1c-0.4-0.7-0.7-1.7-0.7-3V12.9z"
		/>
</g>
</svg>
