<?xml version="1.0" encoding="utf-8"?>
<!-- Generator: Adobe Illustrator 28.1.0, SVG Export Plug-In . SVG Version: 6.00 Build 0)  -->
<svg version="1.1" id="Layer_1" xmlns="http://www.w3.org/2000/svg" xmlns:xlink="http://www.w3.org/1999/xlink" x="0px" y="0px"
	 viewBox="0 0 400 100" style="enable-background:new 0 0 400 100;" xml:space="preserve">
<style type="text/css">
	.st0{fill:#1C75BC;}
	.st1{fill:#14499E;}
	.st2{fill:#42A047;}
	.st3{fill:#41B655;}
	.st4{fill:#3D82C4;}
	.st5{fill:#FBAA19;}
	.st6{fill:#FFFFFF;}
	.st7{fill:#37474F;}
</style>
<g>
	<rect x="224.7" y="44.5" class="st0" width="20.6" height="11"/>
	<path class="st0" d="M253.8,18.9h-22.4c-1.2,0-2.4,0.1-3.5,0.2c-0.4,0-0.7,0.1-1.1,0.1c-2.6,0.4-5.1,1.1-7.5,2.1
		c-3.8,1.6-7.1,3.8-9.9,6.6c-0.5,0.5-0.9,0.9-1.3,1.4l-4.9,7.6l-14.3,22.1c-0.5,0.8-1.2,1.9-2,3.1c-0.8,1.3-1.7,2.5-2.7,3.7
		c-1,1.2-2.1,2.2-3.3,3c-1.2,0.8-2.4,1.3-3.6,1.3c-1.5,0-2.5-0.7-3-2c-0.5-1.4-0.7-3.2-0.7-5.6V50c0-4.4-0.8-8.5-2.5-12.3
		c-1.7-3.9-3.9-7.2-6.8-10.1c-0.5-0.5-1.1-1-1.7-1.5c-2.5-2.2-5.3-3.9-8.4-5.2c-3.8-1.6-7.9-2.5-12.3-2.5c-4.4,0-8.5,0.8-12.3,2.5
		c-3.7,1.6-6.9,3.7-9.6,6.3c-0.4-1.4-1-2.6-1.7-3.7c-1.9-3-4.5-4.5-7.6-4.5c-2.2,0-4.1,0.4-5.8,1.3c-1.7,0.9-3.2,2.1-4.6,3.8
		c-1.4,1.7-2.7,3.8-3.9,6.3c-1.2,2.5-2.4,5.5-3.7,8.8l-9.6,24.1H83c-0.9,2.2-1.6,3.9-2.1,5c-0.5,1.1-1,1.7-1.5,1.7
		c-0.4,0-0.7-0.3-0.8-1c-0.1-0.7-0.2-1.4-0.3-2.3c-0.1-1-0.1-2.1,0-3.4V36.6c0-5.7-1-10.1-2.9-13.1c-1.9-3-4.5-4.5-7.6-4.5
		c-2.2,0-4.1,0.4-5.8,1.3s-3.2,2.1-4.6,3.8c-1.4,1.7-2.7,3.8-3.9,6.3c-1.2,2.5-2.4,5.5-3.7,8.8L33.1,81.1h11.8l16.7-41.8
		c1.2-3.2,2.2-5.5,2.7-7c0.6-1.5,1.2-2.2,1.9-2.2c0.4,0,0.6,0.3,0.8,1.1c0.2,0.7,0.3,1.5,0.4,2.3c0.1,1,0.1,2.1,0,3.3v26.9
		c0,5.7,1,10,2.9,13.1c1.9,3,4.4,4.6,7.6,4.6c2.2,0,4.1-0.4,5.8-1.2c1.7-0.8,3.2-2.1,4.6-3.8c1.4-1.7,2.7-3.8,3.9-6.3
		c1.2-2.5,2.4-5.4,3.7-8.8l8.7-21.7c1.2-3.2,2.2-5.5,2.7-7c0.6-1.5,1.2-2.2,1.9-2.2c0.4,0,0.6,0.3,0.8,1.1c0.2,0.7,0.3,1.5,0.4,2.3
		c0.1,1,0.1,2.1,0,3.3V50c0,4.4,0.8,8.5,2.5,12.3c1.7,3.8,3.9,7.2,6.8,10.1c0.4,0.4,0.8,0.8,1.3,1.2c0.1,0.1,0.3,0.3,0.5,0.4
		c2.5,2.2,5.2,3.9,8.4,5.2c3.9,1.7,8,2.5,12.3,2.5c4.4,0,8.5-0.8,12.3-2.5c3.8-1.6,7.1-3.8,9.9-6.6c0.5,1.4,1.2,2.7,1.9,3.8
		c2.3,3.2,5.3,4.8,9,4.8c3,0,5.7-0.5,8-1.5c2.3-1,4.5-2.4,6.5-4.3c2-1.9,4-4.2,6-6.9c1.9-2.7,4-5.7,6.2-9.2c0.3,0.9,0.6,1.8,1,2.7
		c1.6,3.8,3.8,7.1,6.6,9.9c2.8,2.8,6,5,9.8,6.6c3.8,1.6,7.8,2.5,12,2.5h22.6v-11h-22.4c-2.8,0-5.4-0.5-7.8-1.6
		c-2.4-1.1-4.6-2.5-6.4-4.3c-1.8-1.8-3.2-3.9-4.3-6.4c-1.1-2.4-1.6-5.1-1.6-7.8c0-2.7,0.5-5.3,1.6-7.8c0,0,0,0,0-0.1
		c1-2.2,2.3-4.2,3.9-5.9c0.1-0.1,0.3-0.3,0.4-0.4c1.8-1.8,3.9-3.2,6.4-4.3c2.4-1.1,5.1-1.6,7.8-1.6h22.4V18.9z M156.4,64.5
		c-1.9,1.9-4.1,3.4-6.6,4.5c-2.5,1.1-5.2,1.6-8,1.6c-2.8,0-5.5-0.5-8-1.6c-2.5-1.1-4.7-2.6-6.6-4.5c-1.9-1.9-3.4-4.1-4.5-6.6
		c-1.1-2.5-1.6-5.2-1.6-8c0-2.8,0.5-5.5,1.6-8c1.1-2.5,2.6-4.7,4.5-6.6c1.9-1.8,4.1-3.3,6.6-4.4c2.5-1.1,5.2-1.6,8-1.6
		c2.8,0,5.5,0.5,8,1.6c2.5,1.1,4.7,2.6,6.6,4.4c1.9,1.9,3.4,4.1,4.5,6.6c1.1,2.5,1.6,5.2,1.6,8c0,2.8-0.5,5.5-1.6,8
		C159.8,60.4,158.3,62.6,156.4,64.5z"/>
	<path class="st0" d="M355.9,19v43.8c0.1,2.7,0,4.5-0.3,5.6c-0.3,1.1-0.7,1.7-1.2,1.7c-0.5,0-1.1-0.4-1.8-1.2
		c-0.7-0.9-1.4-1.9-2.1-3.2c-0.7-1.3-1.4-2.6-2.1-4.1c-0.7-1.4-1.3-2.8-1.8-3.9l-9.2-19.3c-1.9-4-3.6-7.3-5-9.8
		c-1.4-2.5-2.9-4.5-4.3-5.9c-1.4-1.4-2.9-2.4-4.5-2.9c-1.6-0.5-3.5-0.8-5.7-0.8c-1.1,0-2.2,0.3-3.5,0.9c-1.3,0.6-2.5,1.6-3.6,3.1
		c-0.9,1.2-1.7,2.7-2.4,4.5c-2.9-2.8-6.2-5-9.9-6.6c-3.8-1.7-7.9-2.5-12.3-2.5c-4.4,0-8.5,0.8-12.3,2.5c-3.9,1.7-7.2,3.9-10.1,6.8
		s-5.1,6.2-6.8,10.1c-1.7,3.9-2.5,8-2.5,12.3c0,4.4,0.8,8.5,2.5,12.3c1.7,3.8,3.9,7.2,6.8,10.1c2.9,2.9,6.2,5.2,10.1,6.8
		c3.9,1.7,8,2.5,12.3,2.5c4.4,0,8.5-0.8,12.3-2.5c3.1-1.3,5.9-3.1,8.4-5.2c0.6-0.5,1.1-1,1.7-1.6c2.9-2.9,5.2-6.2,6.8-10.1
		c1.7-3.8,2.5-7.9,2.5-12.3V37.2c-0.1-2.8,0.1-4.8,0.4-5.8c0.3-1.1,0.8-1.5,1.3-1.4c0.6,0.1,1.2,0.7,1.9,1.7c0.7,1,1.5,2.2,2.2,3.6
		c0.7,1.4,1.4,2.8,2.1,4.2c0.6,1.4,1.2,2.6,1.7,3.6l8.8,18.6c1.9,4,3.6,7.3,5,9.8c1.4,2.5,2.9,4.5,4.3,5.9c1.4,1.4,2.9,2.4,4.5,2.9
		c1.6,0.5,3.5,0.8,5.7,0.8c1.1,0,2.2-0.3,3.5-0.9c1.3-0.6,2.5-1.7,3.6-3.1c1.1-1.4,2.1-3.3,2.8-5.7c0.8-2.3,1.1-5.2,1.1-8.6V19
		H355.9z M305.2,57.9c-1.1,2.5-2.6,4.7-4.5,6.6c-1.9,1.9-4.1,3.4-6.6,4.5c-2.5,1.1-5.2,1.6-8,1.6c-2.8,0-5.5-0.5-8-1.6
		c-2.5-1.1-4.7-2.6-6.6-4.5c-1.9-1.9-3.4-4.1-4.5-6.6c-1.1-2.5-1.6-5.2-1.6-8c0-2.8,0.5-5.5,1.6-8c1.1-2.5,2.6-4.7,4.5-6.5
		c1.9-1.9,4.1-3.3,6.6-4.4c2.5-1.1,5.2-1.6,8-1.6c2.8,0,5.5,0.5,8,1.6c2.5,1.1,4.7,2.6,6.6,4.4c1.9,1.9,3.4,4,4.5,6.5
		c1.1,2.5,1.6,5.2,1.6,8C306.8,52.7,306.3,55.4,305.2,57.9z"/>
</g>
</svg>
