<?xml version="1.0" encoding="utf-8"?>
<!-- Generator: Adobe Illustrator 28.1.0, SVG Export Plug-In . SVG Version: 6.00 Build 0)  -->
<svg version="1.1" id="Layer_1" xmlns="http://www.w3.org/2000/svg" xmlns:xlink="http://www.w3.org/1999/xlink" x="0px" y="0px"
	 viewBox="0 0 192 192" style="enable-background:new 0 0 192 192;" xml:space="preserve">
<style type="text/css">
	.st0{fill:#1C75BC;}
	.st1{fill:#14499E;}
	.st2{fill:#42A047;}
	.st3{fill:#41B655;}
	.st4{fill:#3D82C4;}
	.st5{fill:#FBAA19;}
	.st6{fill:#FFFFFF;}
	.st7{fill:#37474F;}
</style>
<g>
	<rect x="107.1" y="93.5" class="st0" width="9.2" height="4.9"/>
	<path class="st0" d="M120.1,82.1h-10c-0.5,0-1.1,0-1.6,0.1c-0.2,0-0.3,0-0.5,0.1c-1.2,0.2-2.3,0.5-3.4,0.9c-1.7,0.7-3.2,1.7-4.4,3
		c-0.2,0.2-0.4,0.4-0.6,0.6l-2.2,3.4l-6.4,9.9c-0.2,0.4-0.5,0.8-0.9,1.4c-0.4,0.6-0.8,1.1-1.2,1.6c-0.4,0.5-0.9,1-1.5,1.3
		c-0.5,0.4-1.1,0.6-1.6,0.6c-0.7,0-1.1-0.3-1.3-0.9c-0.2-0.6-0.3-1.4-0.3-2.5V96c0-2-0.4-3.8-1.1-5.5c-0.7-1.7-1.8-3.2-3.1-4.5
		c-0.2-0.2-0.5-0.5-0.8-0.7c-1.1-1-2.4-1.7-3.8-2.4c-1.7-0.7-3.6-1.1-5.5-1.1c-2,0-3.8,0.4-5.5,1.1c-1.6,0.7-3.1,1.6-4.3,2.8
		c-0.2-0.6-0.4-1.2-0.8-1.6c-0.9-1.3-2-2-3.4-2c-1,0-1.8,0.2-2.6,0.6c-0.8,0.4-1.4,1-2.1,1.7c-0.6,0.7-1.2,1.7-1.8,2.8
		c-0.5,1.1-1.1,2.5-1.6,4L43.5,102h0c-0.4,1-0.7,1.8-0.9,2.3c-0.2,0.5-0.5,0.8-0.7,0.8c-0.2,0-0.3-0.1-0.4-0.4s-0.1-0.6-0.1-1
		c0-0.4,0-0.9,0-1.5V90c0-2.6-0.4-4.5-1.3-5.9c-0.9-1.3-2-2-3.4-2c-1,0-1.8,0.2-2.6,0.6c-0.8,0.4-1.4,1-2.1,1.7
		c-0.6,0.7-1.2,1.7-1.8,2.8c-0.5,1.1-1.1,2.5-1.6,4l-7.5,18.8h5.3l7.5-18.8c0.6-1.4,1-2.5,1.2-3.2c0.3-0.7,0.5-1,0.8-1
		c0.2,0,0.3,0.2,0.4,0.5c0.1,0.3,0.1,0.7,0.2,1c0,0.5,0,0.9,0,1.5V102c0,2.5,0.4,4.5,1.3,5.9c0.9,1.4,2,2,3.4,2c1,0,1.8-0.2,2.6-0.6
		c0.8-0.4,1.4-0.9,2.1-1.7c0.6-0.8,1.2-1.7,1.7-2.8c0.5-1.1,1.1-2.4,1.6-3.9l3.9-9.8c0.6-1.4,1-2.5,1.2-3.2c0.3-0.7,0.5-1,0.8-1
		c0.2,0,0.3,0.2,0.4,0.5c0.1,0.3,0.1,0.7,0.2,1c0,0.5,0,0.9,0,1.5v6c0,2,0.4,3.8,1.1,5.5c0.7,1.7,1.8,3.2,3,4.5
		c0.2,0.2,0.4,0.4,0.6,0.5c0.1,0.1,0.1,0.1,0.2,0.2c1.1,1,2.4,1.7,3.7,2.3c1.7,0.7,3.6,1.1,5.5,1.1c2,0,3.8-0.4,5.5-1.1
		c1.7-0.7,3.2-1.7,4.4-3c0.2,0.6,0.5,1.2,0.9,1.7c1,1.5,2.4,2.2,4,2.2c1.3,0,2.5-0.2,3.6-0.7c1-0.4,2-1.1,2.9-1.9
		c0.9-0.8,1.8-1.9,2.7-3.1c0.9-1.2,1.8-2.6,2.8-4.1c0.1,0.4,0.3,0.8,0.4,1.2c0.7,1.7,1.7,3.2,3,4.4c1.2,1.3,2.7,2.2,4.4,3
		c1.7,0.7,3.5,1.1,5.4,1.1h10.1V105h-10c-1.2,0-2.4-0.2-3.5-0.7c-1.1-0.5-2-1.1-2.9-1.9c-0.8-0.8-1.4-1.8-1.9-2.9
		c-0.5-1.1-0.7-2.3-0.7-3.5c0-1.2,0.2-2.4,0.7-3.5c0,0,0,0,0,0c0.4-1,1-1.9,1.7-2.7c0.1-0.1,0.1-0.1,0.2-0.2
		c0.8-0.8,1.8-1.4,2.9-1.9c1.1-0.5,2.3-0.7,3.5-0.7h10V82.1z M76.5,102.5c-0.8,0.9-1.8,1.5-3,2c-1.1,0.5-2.3,0.7-3.6,0.7
		c-1.3,0-2.5-0.2-3.6-0.7c-1.1-0.5-2.1-1.2-3-2c-0.8-0.9-1.5-1.8-2-3c-0.5-1.1-0.7-2.3-0.7-3.6c0-1.3,0.2-2.5,0.7-3.6
		c0.5-1.1,1.2-2.1,2-2.9c0.8-0.8,1.8-1.5,3-2c1.1-0.5,2.3-0.7,3.6-0.7c1.3,0,2.5,0.2,3.6,0.7c1.1,0.5,2.1,1.2,3,2
		c0.8,0.8,1.5,1.8,2,2.9s0.7,2.3,0.7,3.6c0,1.3-0.2,2.5-0.7,3.6C78,100.7,77.3,101.7,76.5,102.5z"/>
	<path class="st0" d="M165.9,82.1v19.6c0,1.2,0,2-0.1,2.5c-0.1,0.5-0.3,0.7-0.5,0.8c-0.2,0-0.5-0.2-0.8-0.6c-0.3-0.4-0.6-0.9-1-1.4
		c-0.3-0.6-0.6-1.2-1-1.8c-0.3-0.6-0.6-1.2-0.8-1.8l-4.1-8.6c-0.8-1.8-1.6-3.3-2.2-4.4c-0.6-1.1-1.3-2-1.9-2.6
		c-0.6-0.6-1.3-1.1-2-1.3c-0.7-0.2-1.6-0.4-2.5-0.4c-0.5,0-1,0.1-1.6,0.4c-0.6,0.3-1.1,0.7-1.6,1.4c-0.4,0.5-0.8,1.2-1.1,2
		c-1.3-1.3-2.8-2.2-4.5-3c-1.7-0.7-3.6-1.1-5.5-1.1c-2,0-3.8,0.4-5.5,1.1c-1.7,0.7-3.2,1.8-4.5,3c-1.3,1.3-2.3,2.8-3,4.5
		c-0.7,1.7-1.1,3.6-1.1,5.5c0,2,0.4,3.8,1.1,5.5c0.7,1.7,1.8,3.2,3,4.5c1.3,1.3,2.8,2.3,4.5,3.1c1.7,0.7,3.6,1.1,5.5,1.1
		c2,0,3.8-0.4,5.5-1.1c1.4-0.6,2.7-1.4,3.8-2.4c0.3-0.2,0.5-0.5,0.8-0.7c1.3-1.3,2.3-2.8,3.1-4.5c0.7-1.7,1.1-3.6,1.1-5.5v-5.8
		c0-1.3,0-2.1,0.2-2.6c0.1-0.5,0.3-0.7,0.6-0.6c0.3,0.1,0.5,0.3,0.9,0.8c0.3,0.4,0.7,1,1,1.6c0.3,0.6,0.6,1.3,0.9,1.9
		c0.3,0.6,0.5,1.2,0.8,1.6l4,8.3c0.8,1.8,1.6,3.3,2.2,4.4c0.6,1.1,1.3,2,1.9,2.7c0.6,0.6,1.3,1.1,2,1.3c0.7,0.2,1.6,0.4,2.5,0.4
		c0.5,0,1-0.1,1.6-0.4c0.6-0.3,1.1-0.7,1.6-1.4c0.5-0.6,0.9-1.5,1.3-2.5c0.3-1,0.5-2.3,0.5-3.9V82.1H165.9z M143.2,99.5
		c-0.5,1.1-1.2,2.1-2,3c-0.8,0.9-1.8,1.5-3,2c-1.1,0.5-2.3,0.7-3.6,0.7c-1.3,0-2.5-0.2-3.6-0.7c-1.1-0.5-2.1-1.2-3-2
		c-0.8-0.9-1.5-1.9-2-3c-0.5-1.1-0.7-2.3-0.7-3.6c0-1.3,0.2-2.5,0.7-3.6c0.5-1.1,1.2-2.1,2-2.9c0.8-0.8,1.8-1.5,3-2
		c1.1-0.5,2.3-0.7,3.6-0.7c1.3,0,2.5,0.2,3.6,0.7c1.1,0.5,2.1,1.2,3,2c0.8,0.8,1.5,1.8,2,2.9c0.5,1.1,0.7,2.3,0.7,3.6
		C143.9,97.2,143.7,98.4,143.2,99.5z"/>
</g>
</svg>
