<?xml version="1.0" encoding="utf-8"?>
<!-- Generator: Adobe Illustrator 28.1.0, SVG Export Plug-In . SVG Version: 6.00 Build 0)  -->
<svg version="1.1" id="Layer_1" xmlns="http://www.w3.org/2000/svg" xmlns:xlink="http://www.w3.org/1999/xlink" x="0px" y="0px"
	 viewBox="0 0 512 512" style="enable-background:new 0 0 512 512;" xml:space="preserve">
<style type="text/css">
	.st0{fill:#1C75BC;}
	.st1{fill:#14499E;}
	.st2{fill:#42A047;}
	.st3{fill:#41B655;}
	.st4{fill:#3D82C4;}
	.st5{fill:#FBAA19;}
	.st6{fill:#FFFFFF;}
	.st7{fill:#37474F;}
</style>
<g>
	<rect x="282.9" y="250" class="st0" width="22.4" height="12"/>
	<path class="st0" d="M314.6,222.2h-24.4c-1.3,0-2.6,0.1-3.8,0.2c-0.4,0-0.8,0.1-1.2,0.2c-2.8,0.4-5.6,1.2-8.2,2.3
		c-4.1,1.8-7.7,4.2-10.7,7.2c-0.5,0.5-1,1-1.5,1.6l-5.4,8.3L243.8,266c-0.6,0.9-1.3,2-2.2,3.4c-0.9,1.4-1.8,2.7-2.9,4
		c-1.1,1.3-2.3,2.4-3.6,3.3c-1.3,0.9-2.6,1.4-3.9,1.4c-1.7,0-2.8-0.7-3.3-2.2c-0.5-1.5-0.8-3.5-0.8-6.1V256c0-4.8-0.9-9.2-2.7-13.4
		c-1.8-4.2-4.3-7.9-7.4-11c-0.6-0.6-1.2-1.1-1.8-1.7c-2.7-2.3-5.8-4.2-9.2-5.7c-4.2-1.8-8.6-2.7-13.4-2.7c-4.8,0-9.2,0.9-13.4,2.7
		c-4,1.7-7.5,4-10.5,6.9c-0.5-1.5-1.1-2.8-1.8-4c-2.1-3.3-4.9-4.9-8.3-4.9c-2.4,0-4.5,0.5-6.3,1.4c-1.8,0.9-3.5,2.3-5.1,4.1
		c-1.5,1.8-3,4.1-4.3,6.9c-1.3,2.7-2.6,6-4,9.6l-10.5,26.3h0.1c-1,2.4-1.7,4.3-2.3,5.5c-0.5,1.2-1.1,1.8-1.7,1.8
		c-0.4,0-0.7-0.4-0.9-1.1c-0.1-0.7-0.2-1.6-0.3-2.5c-0.1-1.1-0.1-2.3,0-3.7v-29.3c0-6.2-1.1-11-3.2-14.3c-2.1-3.3-4.9-4.9-8.3-4.9
		c-2.4,0-4.5,0.5-6.3,1.4c-1.8,0.9-3.5,2.3-5.1,4.1c-1.5,1.8-3,4.1-4.3,6.9c-1.3,2.7-2.6,6-4,9.6l-18.1,45.6h12.8l18.2-45.6
		c1.3-3.5,2.3-6,3-7.7c0.6-1.6,1.3-2.4,2-2.4c0.4,0,0.7,0.4,0.9,1.2c0.2,0.8,0.3,1.6,0.4,2.5c0.1,1.1,0.1,2.3,0,3.6v29.3
		c0,6.2,1,10.9,3.1,14.2c2.1,3.3,4.8,5,8.2,5c2.4,0,4.5-0.4,6.3-1.3c1.8-0.9,3.5-2.3,5-4.1c1.5-1.8,2.9-4.1,4.2-6.9
		c1.3-2.7,2.6-5.9,4-9.6l9.4-23.7c1.3-3.5,2.3-6,3-7.7c0.6-1.6,1.3-2.4,2-2.4c0.4,0,0.7,0.4,0.9,1.2c0.2,0.8,0.3,1.6,0.4,2.5
		c0.1,1.1,0.1,2.3,0,3.6V256c0,4.8,0.9,9.2,2.7,13.4c1.8,4.2,4.3,7.8,7.4,11c0.4,0.4,0.9,0.9,1.4,1.3c0.2,0.1,0.3,0.3,0.5,0.4
		c2.7,2.3,5.7,4.2,9.1,5.7c4.2,1.8,8.7,2.7,13.4,2.7c4.8,0,9.2-0.9,13.4-2.7c4.1-1.8,7.7-4.2,10.8-7.2c0.6,1.5,1.3,2.9,2.1,4.1
		c2.5,3.5,5.8,5.3,9.8,5.3c3.3,0,6.2-0.5,8.7-1.6c2.5-1,4.9-2.6,7.1-4.7c2.2-2.1,4.4-4.6,6.6-7.6c2.1-2.9,4.4-6.3,6.8-10
		c0.3,1,0.7,2,1.1,2.9c1.8,4.1,4.2,7.7,7.2,10.8c3,3.1,6.6,5.5,10.7,7.2c4.1,1.8,8.5,2.7,13.1,2.7h24.6v-12h-24.4
		c-3,0-5.9-0.6-8.5-1.7c-2.7-1.2-5-2.7-6.9-4.7c-2-2-3.5-4.3-4.7-6.9c-1.2-2.7-1.7-5.5-1.7-8.5c0-3,0.6-5.8,1.7-8.5c0,0,0,0,0-0.1
		c1.1-2.4,2.5-4.6,4.2-6.5c0.2-0.2,0.3-0.3,0.5-0.5c2-2,4.3-3.5,6.9-4.7c2.7-1.2,5.5-1.7,8.5-1.7h24.4V222.2z M208.5,271.8
		c-2.1,2.1-4.4,3.7-7.2,4.9c-2.7,1.2-5.6,1.8-8.7,1.8c-3.1,0-6-0.6-8.7-1.8c-2.7-1.2-5.1-2.8-7.2-4.9c-2.1-2.1-3.7-4.5-4.9-7.2
		c-1.2-2.7-1.8-5.6-1.8-8.7c0-3.1,0.6-6,1.8-8.7c1.2-2.7,2.8-5.1,4.9-7.1c2.1-2,4.4-3.6,7.2-4.8c2.7-1.2,5.6-1.8,8.7-1.8
		c3.1,0,6,0.6,8.7,1.8c2.7,1.2,5.1,2.8,7.2,4.8c2.1,2,3.7,4.4,4.9,7.1c1.2,2.7,1.8,5.6,1.8,8.7c0,3.1-0.6,6-1.8,8.7
		C212.2,267.4,210.6,269.8,208.5,271.8z"/>
	<path class="st0" d="M425.8,222.2v47.7c0.1,2.9,0,4.9-0.3,6.1c-0.3,1.2-0.7,1.8-1.3,1.8c-0.6,0-1.2-0.4-2-1.3
		c-0.7-0.9-1.5-2.1-2.3-3.5c-0.8-1.4-1.6-2.9-2.3-4.4c-0.7-1.6-1.4-3-2-4.3l-10-21c-2.1-4.4-3.9-7.9-5.4-10.6
		c-1.6-2.7-3.1-4.9-4.7-6.4c-1.5-1.5-3.2-2.6-4.9-3.2c-1.7-0.6-3.8-0.9-6.2-0.9c-1.2,0-2.4,0.3-3.9,1c-1.4,0.7-2.7,1.8-3.9,3.3
		c-1,1.3-1.9,2.9-2.6,4.9c-3.1-3.1-6.7-5.5-10.8-7.2c-4.2-1.8-8.6-2.7-13.4-2.7c-4.8,0-9.2,0.9-13.4,2.7c-4.2,1.8-7.9,4.3-11,7.4
		s-5.6,6.8-7.4,11c-1.8,4.2-2.7,8.7-2.7,13.4c0,4.8,0.9,9.2,2.7,13.4c1.8,4.2,4.3,7.8,7.4,11c3.1,3.1,6.8,5.6,11,7.4
		c4.2,1.8,8.7,2.7,13.4,2.7c4.8,0,9.2-0.9,13.4-2.7c3.4-1.5,6.4-3.4,9.2-5.7c0.6-0.5,1.2-1.1,1.8-1.7c3.1-3.1,5.6-6.8,7.4-11
		c1.8-4.2,2.7-8.6,2.7-13.4v-14c-0.1-3.1,0.1-5.2,0.4-6.4c0.4-1.2,0.8-1.7,1.4-1.5c0.6,0.1,1.3,0.7,2.1,1.8c0.8,1.1,1.6,2.4,2.4,3.9
		c0.8,1.5,1.6,3.1,2.3,4.6c0.7,1.6,1.3,2.9,1.8,3.9l9.6,20.2c2.1,4.4,3.9,7.9,5.4,10.7c1.6,2.8,3.1,4.9,4.7,6.5
		c1.5,1.5,3.2,2.6,4.9,3.2c1.7,0.6,3.8,0.9,6.2,0.9c1.2,0,2.4-0.3,3.9-1c1.4-0.7,2.7-1.8,3.9-3.4c1.2-1.6,2.2-3.6,3.1-6.2
		c0.8-2.5,1.3-5.7,1.3-9.4v-47.7H425.8z M370.6,264.6c-1.2,2.7-2.8,5.1-4.9,7.2c-2.1,2.1-4.4,3.7-7.2,4.9c-2.7,1.2-5.6,1.8-8.7,1.8
		c-3.1,0-6-0.6-8.7-1.8c-2.7-1.2-5.1-2.8-7.2-4.9c-2.1-2.1-3.7-4.5-4.9-7.2c-1.2-2.7-1.8-5.6-1.8-8.7c0-3.1,0.6-6,1.8-8.7
		c1.2-2.7,2.8-5.1,4.9-7.1c2.1-2,4.4-3.6,7.2-4.8c2.7-1.2,5.6-1.8,8.7-1.8c3.1,0,6,0.6,8.7,1.8c2.7,1.2,5.1,2.8,7.2,4.8
		c2.1,2,3.7,4.4,4.9,7.1c1.2,2.7,1.8,5.6,1.8,8.7C372.3,259,371.7,261.9,370.6,264.6z"/>
</g>
</svg>
